<svg width="765" height="1279" viewBox="0 0 765 1279" fill="none" xmlns="http://www.w3.org/2000/svg">
<path fill-rule="evenodd" clip-rule="evenodd" d="M396.335 503.372C373.249 483.396 315.292 474.412 290.653 493.647C266.317 512.963 263.664 544.198 252.323 572.933C241.624 567.2 223.954 575.411 220.852 586.693C217.005 592.015 216.832 606.965 214.179 614.118C98.7346 635 81.2081 737.278 67.3128 853.393C48.9304 971.22 7.20044 1088.79 25.3164 1210.03C22.9559 1213.92 21.0948 1217.69 19.374 1222.17C15.2507 1230.14 20.5617 1241.43 28.8785 1240.99C39.6437 1239.92 50.3023 1238.45 61.118 1237.99C91.1005 1236.81 121.11 1236.95 151.104 1237.38L155.194 1237.44C306.355 1239.58 457.507 1243.8 608.674 1244.91C614.158 1244.92 616.843 1239.33 616.111 1233.82C614.636 1222.72 613.268 1211.61 611.839 1200.51C647.594 1211.24 685.605 1213.94 721.259 1201.64C723.753 1198.75 715.447 1200.31 714.13 1199.87C746.942 1174.4 737.143 1120.72 734.237 1082.06C716.163 949.584 709.791 803.011 639.96 689.969C609.75 643.837 565.46 607.312 514.567 599.094L513.155 598.874C498.274 596.619 481.689 595.893 468.678 586.693C454.044 573.418 447.809 548.889 432.414 548.659C427.33 548.584 420.415 555.892 412.973 560.854C412.418 549.938 407.241 540.727 406.098 532.264L406.006 531.54C404.813 521.673 406.447 512.796 396.335 503.372ZM148.235 856.893C180.678 831.281 264.485 844.15 266.404 845.584C270.628 848.742 272.447 849.021 274.732 853.121C276.987 853.461 279.241 853.814 281.493 854.177C286.011 855.854 282.663 862.169 277.445 859.916C280.583 875.299 271.346 886.238 267.669 901.446C266.475 906.384 267.626 915.264 267.669 920.309C267.312 926.742 261.054 934.341 262.097 940.794C265.805 963.738 285.929 986.12 277.445 1008.37C271.824 1020.94 254.919 1027.35 243.68 1031.62C220.394 1041.77 179.821 1031.24 166.291 1008.37C159.075 996.175 150.714 965.41 146.411 955.868L145.458 940.73C143.106 903.102 141.013 862.594 148.235 856.893Z"/>
<path fill-rule="evenodd" clip-rule="evenodd" d="M438.066 546.44C435.826 544.186 432.512 547.019 433.935 550.063C437.134 556.906 440.414 563.39 444.707 569.44C447.31 573.107 450.097 576.576 452.923 580.007C445.672 587.134 439.454 595.984 433.582 604.278C426.073 614.885 418.974 625.942 410.545 635.648C402.232 645.221 393.04 651.912 381.926 656.374L379.682 657.26C368.517 661.714 356.584 667.729 350.291 679.742C349.05 682.111 351.549 685.038 353.649 683.559C364.585 675.865 377.434 674.318 389.337 669.233C400.835 664.322 410.859 656.764 419.715 647.117C428.557 637.487 435.98 626.53 443.724 615.804C451.381 605.199 459.626 596.141 468.684 587.168C482.661 597.854 498.616 602.503 514.839 607.07L516.609 607.568C532.852 612.138 549.008 617.445 564.246 625.403C577.681 632.418 590.896 640.796 601.84 652.212C613.457 664.328 622.498 679.801 630.774 694.934C649.285 728.789 662.3 765.879 673.757 803.42C685.673 842.468 695.641 882.298 703.687 922.601C707.78 943.101 711.104 963.747 713.835 984.538C715.15 994.551 716.318 1004.59 717.344 1014.64C718.439 1025.38 718.691 1036.43 721.59 1046.76C722.833 1051.18 725.768 1053.02 728.705 1052.86L729.302 1061.34C730.093 1072.65 730.831 1083.96 731.08 1095.33C731.493 1114.25 731.306 1133.11 730.108 1151.98L729.939 1154.56C728.998 1168.33 726.896 1183.81 717.78 1193.9C708.34 1204.34 693.823 1207.63 681.099 1207.82C651.465 1208.25 622.94 1192.34 596.716 1178.38C569.71 1164.01 543.441 1148.05 517.801 1130.74C504.743 1121.93 491.827 1112.82 479.076 1103.45C472.818 1098.85 466.605 1094.17 460.438 1089.42C456.906 1086.7 453.559 1083.71 449.963 1081.3C451.725 1079.43 452.511 1076.5 451.035 1073.94C461.43 1063.69 465.757 1045.39 466.262 1030.59C466.671 1018.63 465.123 1006.72 463.902 994.88C463.286 988.91 462.524 982.951 461.734 977.009C461.422 974.661 461.183 972.15 460.819 969.671C488.887 987.199 517.742 1002.81 547.361 1016.68C562.543 1023.79 577.92 1030.18 593.509 1036.03L596.668 1037.22C611.439 1042.71 626.563 1047.9 641.833 1051.04C642.649 1051.21 643.312 1049.84 642.441 1049.4C627.56 1041.94 612.163 1035.65 597.059 1028.78L594.577 1027.63V1027.63C594.862 1027.61 595.158 1027.56 595.466 1027.48C604.324 1025.05 613.113 1021.31 621.802 1018.15C629.865 1015.23 638.924 1013.39 646.461 1008.97C647.041 1008.63 646.716 1007.72 646.152 1007.67C637.68 1007.01 628.485 1009.81 620.179 1011.46L617.059 1012.08C611.832 1013.13 606.489 1014.26 601.288 1015.73C601.1 1013.75 600.126 1011.76 598.741 1010.59C583.5 997.765 585.048 971.859 583.418 952.756L582.209 938.574C580.083 913.753 577.834 888.935 574.416 864.3C574.234 862.984 572.443 863.362 572.436 864.604C572.259 895.142 574.288 925.539 575.305 956.03L575.462 961.031C576.024 979.845 576.465 999.381 586.892 1013.86C585.434 1012.89 583.463 1012.89 582.282 1014.49C580.83 1016.45 579.992 1018.65 580.018 1020.82C570.596 1016.33 561.215 1011.72 551.88 1007.02C521.866 991.91 492.482 975.001 463.875 956.705C460.796 954.735 457.87 956.283 456.347 958.879L456.128 958.843C456.091 958.838 456.054 958.833 456.015 958.832L455.798 958.822C455.789 958.822 455.781 958.823 455.773 958.823C451.746 956.308 446.26 958.099 442.805 961.766C442.703 961.877 442.616 961.996 442.525 962.113C438.15 959.881 434.065 956.868 430.358 953.05C422.772 945.236 416.346 935.575 410.744 925.887C400.428 908.043 391.665 888.2 377.729 873.512C366.407 861.578 352.369 854.149 337.642 849.484C337.704 848.995 337.54 848.475 337.242 848.128C336.486 847.247 335.946 846.942 334.969 847.477C334.891 847.52 334.844 847.58 334.812 847.644L333.375 844.853C332.591 843.339 331.786 841.814 331.507 841.414C329.834 839.021 328.114 836.647 326.367 834.323C323.405 830.388 320.03 826.504 316.121 823.775C307.564 817.801 298.568 821.182 289.771 824.447C284.455 826.42 279.157 828.458 273.851 830.461L273.304 830.664C269.347 832.109 264.717 833.372 262.947 838.136C262.247 840.021 262.138 841.978 262.465 843.876C224.884 833.016 183.144 838.005 146.472 850.754C145.064 851.243 143.659 852.559 143.362 854.287C139.16 878.774 137.289 903.886 139.19 928.79C140.831 950.288 145.022 971.355 152.921 991.036L153.37 992.147C160.793 1010.39 172.559 1032.87 190.527 1038.59C201.376 1042.04 213.376 1040 224.441 1039.37C235.195 1038.76 246.187 1038.67 256.84 1036.75C266.326 1035.04 274.638 1030.2 280.501 1021.44C285.559 1013.87 288.222 1004.73 290.404 995.643C291.403 996.004 292.395 996.388 293.372 996.823C297.493 998.652 300.985 1001.6 304.142 1005.08C310.809 1012.42 315.981 1021.33 322.957 1028.33C329.271 1034.67 336.467 1039.6 344.185 1043.39C360.178 1051.24 377.335 1054.38 394.253 1058.54L395.433 1058.83C408.168 1062.01 421.168 1065.9 432.409 1073.44C432.629 1075.66 433.518 1077.75 434.943 1079.11C432.961 1081.23 432.121 1084.58 433.863 1087.72C438.73 1096.5 447.113 1101.49 454.638 1107.11L455.128 1107.47C462.531 1113.05 469.999 1118.52 477.527 1123.87C492.832 1134.76 508.456 1145.05 524.301 1154.89C549.787 1170.71 575.819 1185.63 602.323 1199.17C600.732 1208.06 601.314 1217.23 600.118 1226.19L599.935 1227.47C599.424 1230.79 600.114 1233.57 602.128 1235.74L602.341 1235.96L602.337 1235.93L602.526 1236.13L602.589 1236.19L602.568 1236.17C602.8 1236.41 603.04 1236.64 603.284 1236.83L603.595 1237.06V1237.06C605.535 1238.39 608.032 1238.38 610.018 1237.2L610.245 1237.06L610.627 1236.81C613.251 1235.09 615.061 1230.84 613.972 1227.47C611.296 1219.17 610.285 1210.31 607.815 1201.96L609.775 1202.95V1202.95L612.358 1204.23C640.3 1217.96 671.338 1229.53 701.783 1220.17C715.235 1216.03 727.808 1207.28 734.539 1193.01C741.162 1178.98 742.098 1162.68 742.45 1147.07C742.884 1127.8 741.975 1108.24 739.739 1089.14C738.238 1076.31 736.423 1063.25 733.623 1050.56C735.063 1049.11 736.121 1047.04 736.401 1044.48C737.722 1032.36 735.41 1019.75 733.994 1007.7C732.611 995.923 731.082 984.174 729.354 972.46C725.865 948.804 721.811 925.198 717.091 901.82C708.691 860.212 697.598 819.343 684.244 779.452L683.074 775.977C670.734 739.515 656.445 703.831 636.549 671.799C627.031 656.474 616.97 642.579 603.522 631.536C590.923 621.189 576.711 613.739 562.046 608.045C547.364 602.347 532.273 598.528 516.916 596.153C501.32 593.741 484.857 592.261 470.308 584.992C472.149 581.243 470.569 576.181 467.472 573.855C457.048 566.029 447.409 555.848 438.066 546.44ZM104.378 886.758C103.942 886.004 102.905 886.48 103.096 887.372C108.166 910.975 112.925 934.625 116.033 958.678C121.643 1002.09 120.611 1046.07 120.152 1089.81L120.129 1092.07C119.894 1115.63 119.566 1139.18 118.881 1162.73C118.535 1174.63 117.85 1186.65 118.222 1198.56C118.425 1205.02 119.94 1211.13 120.477 1217.51C120.948 1223.09 120.529 1228.76 120.294 1234.34C120.137 1238.06 124.962 1237.9 125.291 1234.34L125.71 1229.74C126.256 1223.92 126.93 1218.13 128.609 1212.56C130.628 1205.86 131.597 1199.27 132.297 1192.24C133.37 1181.45 133.847 1170.56 134.261 1159.7L134.545 1152.19C136.274 1106.81 136.213 1061.21 133.414 1015.87L133.209 1012.63C130.437 969.779 125.627 923.476 104.378 886.758ZM212.446 616.662C213.771 616.043 213.307 613.768 211.84 614.164L209.174 614.887C189.633 620.206 170.447 625.968 152.208 635.866C133.957 645.768 118.506 660.552 106.228 678.732C82.3617 714.07 72.4438 757.016 64.6143 799.921C55.9131 847.597 47.9909 895.448 39.214 943.109L37.5842 951.987C29.4628 996.378 21.7951 1040.79 16.1452 1085.71L15.7394 1088.97C10.0419 1135.16 6.61493 1182.95 12.8318 1229.26C14.0616 1238.42 27.4781 1236.14 26.9534 1227.08C25.4384 1200.92 24.3536 1174.88 25.4019 1148.66C26.4512 1122.43 28.6162 1096.31 31.8436 1070.31C34.5596 1048.42 38.6083 1026.81 42.1913 1005.11L42.7529 1001.68C45.753 983.213 48.8459 964.767 51.932 946.321L56.5439 918.702C63.456 877.347 70.5034 835.955 78.4666 794.86L78.9391 792.442C86.7321 752.905 98.2211 711.49 121.596 680.094C145.318 648.232 179.276 632.185 212.446 616.662ZM298.642 1036.02C298.071 1034.58 296.075 1034.74 295.462 1036.02C293.058 1041.06 292.791 1047.5 292.337 1053.19L292.289 1053.77C291.711 1060.71 291.199 1067.68 290.886 1074.65C290.292 1087.87 290.008 1101.07 290.044 1114.31C290.082 1127.87 290.322 1141.42 290.965 1154.96L291.14 1158.59C291.727 1170.36 292.713 1183.49 297.634 1193.78C299.423 1197.53 304.289 1196.43 305.326 1192.64C308.72 1180.25 306.977 1165.57 306.106 1152.88L305.43 1142.98C304.761 1133.08 304.122 1123.17 303.616 1113.26C302.922 1099.7 302.35 1086.13 301.799 1072.56C301.62 1068.15 301.427 1063.74 301.222 1059.34L300.908 1052.73C300.639 1047.2 300.662 1041.13 298.642 1036.02ZM680.345 1053.58L678.842 1051.93C674.228 1046.8 668.399 1038.9 661.579 1039.39C658.859 1039.58 657.126 1042.15 657.69 1045.19C658.894 1051.69 664.729 1055.06 668.929 1059.03C673.53 1063.38 677.867 1068.02 682.195 1072.71C686.035 1076.87 689.728 1081.15 693.332 1085.56L694.679 1087.22C695.971 1088.82 705.171 1098.27 704.176 1100.73L704.122 1100.84C703.845 1101.31 704.306 1101.95 704.765 1101.79C708.738 1100.36 708.49 1096.49 706.988 1092.57C704.102 1085.04 699.049 1078.07 694.635 1071.64C690.234 1065.22 685.47 1059.25 680.345 1053.58V1053.58ZM284.246 864.671C287.318 856.42 298.635 856.593 305.06 857.086C321.239 858.328 338.744 862.98 353.14 871.574C368.064 880.483 378.118 894.758 387.113 910.542L387.534 911.283C396.301 926.771 404.745 945.105 418.474 955.753C425.467 961.179 433.632 966.132 442.116 968.278C442.699 969.442 443.643 970.363 444.88 970.698L445.455 970.847C447.871 971.454 451.625 972.125 454.868 971.723C454.846 973.526 454.863 975.315 454.823 977.022C454.709 981.916 454.66 986.832 454.66 991.729C454.658 1001.99 455.144 1012.27 454.767 1022.53C454.433 1031.61 453.305 1041.09 449.471 1049.2C446.659 1055.15 442.947 1059.09 438.466 1062.85C427.444 1055.22 414.98 1050.56 402.331 1047.06C387.033 1042.83 371.369 1040.01 356.419 1034.27C349.223 1031.51 342.305 1027.9 336.038 1022.99C329.385 1017.77 324.304 1010.72 319.077 1003.82L318.26 1002.75C312.924 995.799 307.103 989.145 299.563 985.376C293.069 982.128 284.511 981.55 278.834 976.525C275.865 973.896 275.617 970.08 275.304 966.174C278.94 966.765 282.79 965.818 286.414 965.335L288.291 965.085C291.718 964.622 295.066 964.114 298.439 963.123C299.066 962.939 299.066 961.865 298.439 961.681C294.453 960.511 290.501 960.013 286.414 959.469L285.453 959.333C281.755 958.782 277.868 957.95 274.241 958.875C273.59 956.061 272.65 953.374 271.332 950.683C269.481 946.903 265.978 942.617 265.505 938.201C265.364 936.882 265.634 935.327 266.181 934.161L266.37 933.764C266.6 933.295 266.872 932.823 267.271 932.53C267.315 932.589 267.408 932.655 267.611 932.728C270.403 933.727 272.838 932.174 274.131 929.781C279.617 930.554 285.606 930.294 290.751 930.552L295.954 930.838C301.513 931.128 307.324 931.255 312.548 929.978C313.277 929.801 313.498 928.421 312.768 928.067C306.346 924.945 298.555 923.949 291.68 922.751C287.84 922.08 283.972 921.57 280.121 920.98C277.556 920.587 274.835 919.937 272.178 919.781C265.516 910.358 269.106 895.492 278.376 891.434C281.753 893.121 284.79 892.14 288.479 891.78C292.162 891.421 295.855 891.177 299.552 891.195C306.962 891.232 314.814 893.447 322.152 892.494C323.345 892.338 324.454 890.533 323.267 889.432C317.651 884.224 309.601 882.525 302.471 881.415L300.994 881.19C298.603 880.834 295.696 880.315 292.681 880.006C292 878.494 290.776 877.352 288.939 877.068C288.393 876.983 287.844 876.933 287.296 876.88L287.304 876.818V876.818C282.822 876.574 283.017 867.972 284.246 864.671ZM591.059 1025.6C591.138 1025.74 591.224 1025.87 591.317 1026L591.459 1026.18L590.722 1025.84L591.059 1025.6V1025.6ZM206.042 846.233C224.905 843.93 243.795 844.416 262.715 845.034C264.228 850.659 269.495 855.452 274.598 855.632C270.601 862.545 270.189 871.902 272.992 879.234C267.041 881.926 261.914 886.761 258.802 893.648C254.486 903.195 255.05 913.818 259.316 922.641C255.675 926.386 253.527 932.468 253.742 938.201C253.982 944.593 257.335 950.054 260.121 955.346C263.132 961.07 263.233 966.11 264.158 972.521C265.511 981.903 271.079 987.593 278.244 991.146L277.863 992.849C276.016 1001.02 273.717 1009.64 268.438 1015.62C261.647 1023.3 251.111 1023.23 242.138 1023.72L241.705 1023.74C233.489 1024.21 225.276 1024.75 217.062 1025.28L210.902 1025.68C201.445 1026.27 192.364 1026.34 184.643 1019.23C172.04 1007.64 163.399 988.444 157.93 971.454C146.451 935.792 146.314 896.656 151.583 859.515C169.254 853.042 187.588 848.486 206.042 846.233ZM362.912 905.399L362.774 905.41C358.89 905.914 356.222 909.488 355.272 913.727C353.891 919.889 354.568 925.46 351.247 931.022C347.831 936.742 345.731 941.321 345.234 948.388C345.03 951.295 345.124 954.196 344.554 957.042L344.141 959.036C343.703 961.162 343.344 963.21 343.562 965.493C343.761 967.575 344.653 969.196 346.491 969.864C352.479 972.04 357.103 967.026 358.65 960.685C359.986 955.207 358.202 948.68 360.087 943.536C361.132 940.685 363.058 938.3 364.147 935.429C365.225 932.584 365.766 929.612 365.939 926.519C366.268 920.67 361.715 913.642 364.255 908.342C364.796 907.211 364.184 905.364 362.912 905.399ZM442.454 845.036C438.399 844.1 433.799 841.954 429.8 843.737C427.745 844.655 426.729 847.504 428.466 849.483C431.481 852.918 435.863 853.11 439.925 853.92L440.282 853.993C445.084 855.002 449.895 855.96 454.712 856.867C463.775 858.573 472.86 860.081 481.976 861.363C491.34 862.68 500.729 863.852 510.132 864.734L513.772 865.073C521.714 865.795 529.979 866.34 537.772 864.957C538.904 864.756 538.722 862.883 537.772 862.554C529.234 859.618 519.869 858.83 511.043 857.588C501.659 856.265 492.291 854.867 482.947 853.209C473.618 851.554 464.302 849.777 455.02 847.813C450.825 846.926 446.636 846.001 442.454 845.036ZM296.137 835.608C299.695 834.176 303.61 832.055 307.466 832.765C314.115 833.989 320.033 841.351 325.297 846.199L322.654 845.615C309.132 842.662 291.224 839.48 279.873 849.25C279.844 849.194 279.821 849.138 279.789 849.081C278.872 847.5 277.811 846.266 276.652 844.913C276.541 844.795 276.434 844.672 276.329 844.547L275.704 843.791L277.133 843.228C280.196 841.998 283.824 840.409 284.398 840.178L284.438 840.162C288.342 838.659 292.251 837.173 296.137 835.608ZM407.241 513.514C407.798 505.381 396.658 505.448 396.107 513.514C394.903 531.124 398.39 548.567 405.896 564.005C405.952 564.118 406.012 564.218 406.07 564.324C401.376 567.1 396.628 569.763 391.774 572.144C385.565 575.19 379.239 577.964 372.8 580.317C366.976 582.446 359.8 583.287 354.903 587.719C344.578 597.062 348.457 616.453 350.443 629.023L350.753 631.007C351.742 637.475 352.458 644.111 350.058 650.318C347.496 656.949 342.314 661.867 337.691 666.611L336.757 667.573C332.662 671.813 327.982 676.965 324.979 682.712C322.236 676.27 318.498 671.005 314.546 665.078C311.727 660.848 313.734 659.454 315.759 655.322C317.709 651.345 318.661 647.105 318.051 642.569C316.926 634.19 311.034 628.137 305.168 623.59C298.241 618.222 290.51 614.245 283.349 609.251C268.634 598.991 254.304 587.261 241.393 574.232C241.037 573.872 240.42 574.344 240.705 574.836C250.904 592.464 262.862 607.696 277.559 620.626C283.518 625.869 289.778 630.217 296.08 634.789L297.892 636.11C300.423 637.973 303.579 640.462 304.723 643.633C305.874 646.823 303.419 649.231 302.098 651.873C297.901 660.263 299.926 668.091 304.901 675.206L305.132 675.534C310.076 682.457 313.822 688.895 315.614 697.739C319.464 716.738 314.102 736.528 308.488 754.364L308.266 755.067C305.23 764.68 302.002 774.224 299.364 783.992L298.638 786.692C296.248 795.679 294.29 804.544 296.972 813.783C297.884 816.925 301.655 817.668 303.222 814.711C308.748 804.281 310.126 791.729 313.59 780.262C316.966 769.086 320.842 758.112 324.103 746.891C328.302 732.443 331.113 716.89 329.587 701.735C329.632 701.647 329.682 701.564 329.719 701.471L330.788 698.814C333.703 691.619 336.518 685.336 341.819 679.601C347.348 673.619 353.349 668.323 357.7 661.082C367.15 645.352 361.305 627.853 360.164 610.654L360.033 608.545C359.826 604.974 359.712 600.121 361.765 597.649C364.074 594.867 369.489 594.157 372.553 592.925C380.47 589.741 388.272 586.031 395.704 581.576C402.778 577.336 409.63 572.651 416.01 567.163L419.243 564.398C424.346 560.024 429.636 555.246 433.056 549.292C433.45 548.606 432.78 547.5 432.065 547.828C426.357 550.461 421.141 554.648 415.8 558.291C415.717 558.069 415.621 557.845 415.511 557.619C408.903 544.029 406.185 528.972 407.241 513.514ZM224.891 606.627C222.617 599.54 212.251 600.087 212.664 608.508C212.981 614.978 215.398 620.818 217.609 626.692L217.844 627.321C220.126 633.442 222.762 639.188 225.915 644.797C231.941 655.521 238.999 665.472 246.538 674.864C253.372 683.379 262.343 688.585 272.679 687.72C277.035 687.355 281.431 686.096 285.248 683.624C289.781 680.687 294.704 671.867 300.487 674.003C301.046 674.209 301.568 673.278 301.085 672.837C294.408 666.727 286.83 676.201 280.438 678.484C270.806 681.922 260.922 678.12 254.723 669.272C248.25 660.033 242.293 649.689 236.853 639.63C234.09 634.523 231.57 629.222 229.392 623.758C227.196 618.243 226.696 612.25 224.891 606.627ZM240.417 563.009C240.698 562.031 239.628 561.1 238.871 561.659C234.484 564.904 230.682 569.192 226.636 572.951C222.146 577.122 217.623 581.207 213.03 585.229C206.335 591.095 214.1 601.892 219.994 595.485C228.059 586.72 236.892 575.26 240.417 563.009ZM264.503 528.704C262.721 520.894 252.18 524.115 253.716 531.834L253.766 532.069C256.676 544.818 252.532 557.798 243.686 566.064L243.36 566.364C237.764 571.453 245.693 580.351 251.234 575.31C263.331 564.309 268.363 545.62 264.503 528.704Z" fill="black"/>
<path fill-rule="evenodd" clip-rule="evenodd" d="M179.049 323.305C181.061 303.189 178.457 261.142 178.283 258.588C177.18 242.439 183.829 178.669 196.397 184.544C217.481 165.549 245.562 161.355 271.82 159.351C326.363 155.189 384.386 164.744 426.502 206.518C447.33 228.213 467.607 259.765 465.977 292.619C484.901 323.76 511.579 366.477 488.001 402.884C479.986 414.515 467.248 418.847 457.18 427.656C436.929 446.245 424.224 472.924 403.78 491.403C349.618 546.793 257.652 558.364 204.438 495.363C163.289 449.735 169.942 381.473 177.18 323.305C182.046 284.197 175.125 362.549 179.049 323.305Z"/>
<path fill-rule="evenodd" clip-rule="evenodd" d="M344.681 74.0457C330.094 70.6957 315.116 68.6112 300.22 69.2387L299.071 69.2894C287.863 69.7992 273.669 70.927 263.892 78.3443C263.329 77.7019 262.425 77.3723 261.604 77.8179C249.985 84.1297 237.205 88.6931 224.971 93.2279C212.793 97.7403 200.16 100.719 187.396 101.92C182.594 102.372 178.484 108.273 181.525 113.566C182.248 114.827 182.952 116.101 183.654 117.379C182.48 117.239 181.307 117.096 180.133 116.961C176.271 116.518 172.413 121.209 172.642 125.489C172.785 128.181 173.04 130.84 173.417 133.468C171.946 133.433 170.484 133.684 169.071 134.364C161.917 137.802 162.415 147.5 162.95 154.878C163.692 165.118 167.057 175.963 173.305 183.627C168.64 189.141 165.338 195.726 163.368 203.547C161.939 209.258 161.144 215.341 161.536 221.286L161.662 223.066C162.147 229.517 163.112 236.66 167.19 241.301C169.283 243.694 171.862 244.566 174.321 244.289C172.834 259.157 171.881 274.11 170.984 289.009L170.563 296.131C168.562 330.566 167.058 365.226 167.452 399.719C167.817 431.953 173.413 463.241 190.785 489.414C206.606 513.247 229.322 530.815 255.02 537.494C268.869 541.099 283.007 541.355 297.024 539.058C303.818 537.941 310.658 536.229 317.106 533.527C324.245 530.528 329.375 526.115 334.178 519.5C336.45 516.363 335.356 509.684 330.833 510.311C323.991 511.255 317.746 512.393 311.187 514.696L310.247 515.033C303.715 517.415 296.949 519.191 290.119 519.947C276.129 521.489 261.926 519.936 248.525 515.108C226.706 507.238 207.914 489.701 195.869 467.665C181.571 441.546 179.955 411.896 180.161 381.863C180.382 348.907 181.324 315.932 182.862 283.01L183.123 277.524C183.936 260.582 184.721 243.63 185.412 226.678C185.627 221.361 185.954 216.001 186.544 210.694C191.934 207.099 196.766 202.143 199.915 196.028C206.241 199.006 212.894 201.154 219.016 202.866C233.196 206.835 247.917 207.799 262.35 205.314C266.243 207.144 270.213 208.753 274.245 210.138C275.334 210.687 276.424 211.228 277.512 211.757C287.232 216.49 297.09 220.499 307.35 223.434L309.87 224.15C315.269 225.664 321.134 227.156 326.88 227.625C327.824 228.039 328.842 228.39 329.955 228.699C335.187 230.145 340.617 230.602 345.98 230.092C351.205 229.592 354.98 223.583 352.102 217.957C349.999 213.852 347.877 209.758 345.737 205.674C353.185 209.205 360.876 212.14 368.632 214.629C376.462 217.138 384.405 219.255 392.359 221.201C396.61 222.233 400.88 223.147 405.122 224.179C408.159 224.913 412.822 225.295 415.3 227.571C418.037 230.071 418.812 235.898 419.85 239.493C421.215 244.162 422.495 248.852 423.663 253.595C425.989 263.06 427.895 272.663 429.372 282.362C430.848 292.072 431.84 301.878 432.391 311.715C432.941 321.542 432.699 331.432 433.586 341.216C434.064 346.406 438.959 349.075 442.576 345.449C443 345.023 443.427 344.593 443.851 344.158L444.482 343.503C447.576 340.312 450.575 336.93 453.051 333.123C453.499 332.421 453.929 331.687 454.331 330.943C454.396 330.943 454.453 330.922 454.518 330.868L455.204 330.281C462.762 323.878 475.388 315.532 482.757 326.168C485.106 329.556 486.308 333.87 487.306 338.032L489.057 345.482C490.189 350.344 491.255 355.234 491.879 360.21C493.29 371.355 492.579 384.202 485.841 393.136C483.15 396.709 479.44 399.261 475.301 399.931C472.992 400.293 470.712 399.846 468.423 399.517C466.096 399.187 463.854 399.719 461.526 399.464C457.826 399.049 456.209 404.09 457.592 407.259C458.34 408.961 459.219 410.428 460.218 411.672C459.415 412.459 458.648 413.31 457.91 414.204C455.723 415.001 453.762 416.713 452.294 418.979C451.107 420.808 450.491 422.797 450.388 424.892C450.258 425.413 450.146 425.945 450.042 426.487L448.037 430.19C447.596 431.002 447.157 431.804 446.716 432.591C441.614 441.737 435.95 449.48 428.914 456.775C422.139 463.794 414.786 470.079 408.421 477.609L407.671 478.503C401.738 485.619 395.483 494.232 397.806 504.579C398.404 507.238 401.666 509.152 403.795 507.355C410.645 501.569 414.094 492.402 419.906 485.383C425.887 478.151 432.512 471.653 438.511 464.443C444.184 457.637 448.66 449.926 452.032 441.44C453.379 443.131 455.34 444.332 458.06 444.8C462.732 445.598 467.087 442.482 469.124 437.877C470.433 438.536 471.768 439.132 473.115 439.6C480.198 442.067 484.654 433.102 481.982 426.476C480.553 422.924 478.768 419.84 476.553 417.245C483.478 416.16 490.524 412.087 495.075 407.004C506.493 394.231 508.063 375.035 505.493 357.966C504.128 348.916 501.775 339.759 498.718 331.262C498.186 329.784 497.615 328.295 496.99 326.827C497.336 326.816 497.691 326.646 497.915 326.317C499.98 323.105 502.493 320.478 504.027 316.883C505.438 313.587 507.007 310.247 508.12 306.812C510.408 299.782 511.529 291.849 512.277 284.415C513.819 269.196 513.222 254.074 511.174 238.951C507.69 213.193 499.272 188.543 486.871 166.914C487.546 166.51 488.193 166.023 488.796 165.446L489.094 165.151L489.578 164.653C493.117 161.008 492.811 154.178 489.578 150.486L488.557 149.321C487.264 147.859 486.149 146.701 484.06 145.109C483.752 144.874 483.437 144.653 483.118 144.447C484.211 142.147 484.591 139.459 483.829 136.493C481.175 126.16 468.112 126.526 459.831 131.032C450.671 121.727 440.513 113.65 429.503 107.11C403.281 91.5401 373.632 80.6818 344.681 74.0457ZM480.225 346.193C475.328 344.375 468.824 348.193 464.423 350.49C458.844 353.404 454.097 357.711 449.5 362.263C447.21 364.539 446.8 368.261 447.369 371.441C447.426 371.76 447.481 372.089 447.548 372.419C448.155 375.812 451.482 378.481 454.425 378.385C460.583 378.194 463.517 372.142 467.003 367.016C467.413 367.846 467.927 368.612 468.564 369.186L468.993 369.569C470.44 370.822 472.035 371.824 473.946 371.728C475.301 371.653 476.599 371.26 477.796 370.547C480.786 368.75 482.103 364.347 481.291 360.763C480.786 358.509 479.628 356.743 478.114 355.52L478.678 355.081C479.885 354.125 480.987 353.116 481.845 351.629L482.038 351.277H481.964C482.898 349.448 482.29 346.959 480.225 346.193Z" fill="black"/>
<path fill-rule="evenodd" clip-rule="evenodd" d="M281.224 467.817C286.946 464.701 292.051 459.502 295.784 452.86C297.082 450.552 297.418 448.114 297.146 445.884C296.84 443.376 295.729 441.104 294.214 439.58C292.694 438.051 290.793 437.296 288.955 437.681C287.358 438.015 285.768 439.182 284.51 441.604L284.247 442.088C282.028 446.097 279.136 449.386 275.841 451.505C272.665 453.549 269.113 454.502 265.438 453.948C258.438 452.892 253.613 447.837 248.484 440.973C247.849 440.106 247.213 439.213 246.573 438.304C246.17 437.481 245.61 436.952 244.988 436.674C244.297 436.366 243.516 436.384 242.801 436.717C242.11 437.039 241.494 437.648 241.08 438.459C240.687 439.23 240.464 440.182 240.536 441.277C241.006 448.391 243.791 454.739 247.748 459.724C252.142 465.261 257.967 469.091 263.451 470.434C269.493 471.914 275.649 470.854 281.224 467.817V467.817ZM260.601 358.076C254.173 363.292 244.379 375.457 251.294 388.39C259.433 399.793 271.152 386.718 276.927 380.805C282.282 376.222 288.298 388.009 283.33 393.36C241.601 434.61 224.666 359.44 257.35 351.942C260.948 351.116 262.285 356.462 260.601 358.076ZM335.381 310.091C334.671 298.321 321.245 295.648 319.909 307.295C318.713 317.729 320.121 327.313 323.641 336.706C327.004 345.68 335.457 341.493 336.096 333.322C336.953 322.368 335.822 317.413 335.381 310.091ZM233.181 304.88C231.309 301.607 228.607 299.373 225.369 300.635C215.252 304.583 218.234 323.759 221.787 333.093C223.717 338.162 229.958 339.448 232.778 334.984C237.374 327.706 239.575 313.171 233.732 306.002C233.574 305.632 233.397 305.258 233.181 304.88ZM323.783 258.589L322.185 258.215C317.242 257.074 311.095 255.977 307.598 261.283C305.743 264.097 305.104 269.328 307.598 272.021C311.983 276.761 316.831 274.924 322.087 275.325C326.418 275.657 330.58 276.614 334.752 278.206C343.904 281.699 351.362 288.075 359.178 295.076C360.204 295.994 361.251 294.242 360.762 292.962C356.249 281.161 347.505 271.468 338.746 265.559C334.071 262.405 328.955 259.789 323.783 258.589ZM242.403 253.303L241.18 253.637C227.87 257.352 210.576 264.772 204.273 282.229C204.033 284.697 204.286 285.226 204.493 285.572L204.561 285.687C204.731 285.982 204.867 286.389 205.668 286.725C205.891 286.654 206.115 286.579 206.342 286.5C209.232 285.489 211.518 284.096 213.731 282.651L216.13 281.072C218.914 279.25 221.723 277.494 224.699 276.197C231.051 273.431 237.584 271.482 244.219 270.442C245.657 270.216 247.042 269.568 248.134 268.458C249.171 267.404 249.963 265.944 250.324 264.004C250.793 261.494 250.658 259.593 249.649 257.328C248.89 255.627 247.805 254.448 246.559 253.771C245.288 253.081 243.841 252.918 242.403 253.303Z" fill="black"/>
<path fill-rule="evenodd" clip-rule="evenodd" d="M220.616 458.378C223.969 457.638 227.262 456.777 230.571 455.947C247.488 450.217 267.924 449.178 285.665 454.004C294.373 456.372 302.493 460.628 311.231 463.416C313.306 463.939 315.398 464.413 317.514 464.811C318.811 464.506 320.108 464.182 321.395 463.858C330.663 461.503 339.381 458.597 347.845 455.401C348.748 454.544 349.684 453.711 350.691 452.911C344.567 452.324 338.57 451.35 333.145 450.345C316.486 447.267 300.788 442.253 284.187 439.04C268.729 436.041 251.955 434.402 236.43 438.127C229.061 439.895 222.576 442.992 215.409 445.078C211.701 446.153 207.253 447.209 202.92 447.365C205.715 451.88 209.251 456.097 214.083 459.608C216.293 459.291 218.483 458.844 220.616 458.378ZM184.569 423.012C186.053 423.843 192.174 426.525 194.16 428.124C194.673 427.992 195.183 427.857 195.69 427.719C196.564 426.996 197.85 426.678 199.161 426.698C208.316 423.826 216.466 419.769 223.738 414.682C228.907 411.073 234.201 407.297 241.108 405.204C249.245 402.729 257.248 403.87 265.799 404.245C274.897 404.653 283.879 402.911 292.968 403.746C299.616 404.362 305.841 406.26 311.221 408.936C322.202 414.397 329.772 422.067 339.053 428.681C349.582 436.183 362.533 440.977 376.934 443.426C377.107 443.348 377.289 443.27 377.472 443.199C388.088 436.721 397.676 429.407 406.159 421.613C414.44 414.002 436.277 379.738 441.552 376.732C443.742 375.482 446.144 374.944 448.44 374.989C452.6 375.054 456.443 377.004 458.162 380.075C461.083 385.296 459.623 392.047 459.392 397.508C459.104 404.193 458.451 410.873 457.413 417.526C456.385 424.101 455.021 430.657 453.32 437.168C452.465 440.459 451.514 443.743 450.467 447.015C450.14 448.045 449.727 448.965 449.228 449.82C448.719 451.433 448.171 453.04 447.585 454.633C443.761 465.07 437.728 475.519 426.209 483.222C414.219 491.248 397.926 496.58 382.794 501.348C368.384 505.889 353.281 509.925 337.785 513.087C324.325 517.2 309.915 520.452 295.446 522.163C279.518 524.048 262.772 524.164 247.391 520.433C239.83 518.6 232.683 516.041 226.198 512.853C217.004 509.634 208.732 505.209 201.959 499.353C189.828 488.857 184.038 476.12 181.504 462.987C180.856 459.625 178.418 446.742 178.226 444.736C177.607 438.258 176.988 431.78 176.369 425.302C176.076 422.245 181.641 421.373 184.569 423.012Z" fill="black"/>
<path fill-rule="evenodd" clip-rule="evenodd" d="M183.433 340.683C194.8 354.046 213.775 357.881 228.898 350.714C267.729 332.255 248.723 274.68 218.776 259.219C215.034 258.158 210.038 255.64 205.481 255.07C205.069 254.839 204.172 255.505 203.085 254.876C170.064 259.07 162.544 317.393 183.433 340.683M308.679 344.104C321.428 363.342 345.129 369.278 364.494 360.334C402.75 343.193 389.182 292.138 363.008 272.123C307.717 248.484 284.885 308.631 308.679 344.104M391.61 301.476C391.646 301.457 391.681 301.447 391.718 301.428C391.516 301.327 391.313 301.225 391.112 301.122C391.178 301.317 391.249 301.51 391.312 301.705C391.412 301.627 391.499 301.536 391.61 301.476M157.114 280.679C160.235 280.687 164.744 281.271 167.328 283.735C173.7 259.285 197.22 236.656 217.675 253.156C233.782 259.05 245.735 272.122 252.528 289.499C264.777 281.21 284.037 284.75 294.658 295.712C301.615 269.56 318.734 260.402 339.111 259.05C361.352 254.905 383.52 279.481 390.437 299.196C396.188 298.452 404.782 296.369 410.192 300.407C445.307 289.93 506.7 284.153 513.839 289.975C518.926 292.196 521.718 305.858 514.612 306.595C508.42 305.595 515.335 296.584 509.093 295.601C475.836 293.255 443.55 300.876 410.645 304.074C407.707 308.57 398.214 310.074 393.15 308.268C401.126 341.711 383.909 364.464 358.111 371.279C318.165 381.72 283.412 341.062 293.857 298.773C281.756 291.924 267.838 292.218 254.655 295.826C276.683 388.063 146.12 383.925 166.512 286.895C152.941 294.575 149.994 282.229 157.114 280.679" fill="black"/>
</svg>
